HIERARCHY
ROOT Hips
{
	OFFSET	0.00	0.00	0.00
	CHANNELS 6 Xposition Yposition Zposition Zrotation Xrotation Yrotation
	JOINT Spine
	{
		OFFSET	 0.00	0.01	 0.00
		CHANNELS 3 Zrotation Xrotation Yrotation
		JOINT Spine1
		{
			OFFSET	 0.00	 2.45913012437421	 0.00
			CHANNELS 3 Zrotation Xrotation Yrotation
            JOINT Neck
            {
                OFFSET	 0.00	 2.48462964506057	 0.00
                CHANNELS 3 Zrotation Xrotation Yrotation
                JOINT Head
                {
                    OFFSET	 0.00	 0.927524780924562	 0.00
                    CHANNELS 3 Zrotation Xrotation Yrotation
                    End Site 
                    {
                        OFFSET	 0.00	 1.14999962169752	 0.00
                    }
                }
            }
			JOINT LeftShoulder
			{
				OFFSET	 0.00	 2.48462964506057	 0.00
				CHANNELS 3 Zrotation Xrotation Yrotation
				JOINT LeftUpArm
				{
					OFFSET	 0.00	 1.24881979654096	 0.00
					CHANNELS 3 Zrotation Xrotation Yrotation
					JOINT LeftForeArm
					{
						OFFSET	 0.00	2.59758046908119	 0.00
						CHANNELS 3 Zrotation Xrotation Yrotation
						JOINT LeftHand
						{
							OFFSET	 0.00	2.45542024364365	 0.00
							CHANNELS 3 Zrotation Xrotation Yrotation
							JOINT LeftHandThumb 
							{
								OFFSET	 0.00	0.00	 0.00
								CHANNELS 3 Zrotation Xrotation Yrotation
								End Site
								{
									OFFSET	 0.00	0.00	1.00000003353624
								}
							}
							JOINT L_Wrist_End 
							{
								OFFSET	 0.00	0.99999967115358	 0.00
								CHANNELS 3 Zrotation Xrotation Yrotation
								End Site 
								{
									OFFSET	 0.00	 0.00	 0.00
								}
							}
						}
					}
				}
			}
			JOINT RightShoulder
			{
				OFFSET	 0.00	 2.48462964506057	 0.00
				CHANNELS 3 Zrotation Xrotation Yrotation
				JOINT RightUpArm
				{
					OFFSET	 0.00	 1.24881979654096	 0.00
					CHANNELS 3 Zrotation Xrotation Yrotation
					JOINT RightForeArm
					{
						OFFSET	 0.00	2.59758046908119	 0.00
						CHANNELS 3 Zrotation Xrotation Yrotation
						JOINT RightHand
						{
							OFFSET	 0.00	2.45542024364365	 0.00
							CHANNELS 3 Zrotation Xrotation Yrotation
							JOINT RightHandThumb 
							{
								OFFSET	 0.00	0.00	 0.00
								CHANNELS 3 Zrotation Xrotation Yrotation
								End Site
								{
									OFFSET	 0.00	0.00	1.00000003353624
								}
							}
							JOINT R_Wrist_End 
							{
								OFFSET	 0.00	0.99999967115358	 0.00
								CHANNELS 3 Zrotation Xrotation Yrotation
								End Site 
								{
									OFFSET	 0.00	 0.00	 0.00
								}
							}
						}
					}
				}
			}
		}
	}
	JOINT LeftUpLeg
	{
		OFFSET	 1.2719394002717	 0.00	 0.00
		CHANNELS 3 Zrotation Xrotation Yrotation
		JOINT LeftLowLeg
		{
			OFFSET	 0.00	-4.3429100912261	 0.00
			CHANNELS 3 Zrotation Xrotation Yrotation
			JOINT LeftFoot
			{
				OFFSET	 0.00	-4.48767017425826	 0.00
				CHANNELS 3 Zrotation Xrotation Yrotation
				JOINT LeftToeBase
                {
                    OFFSET	 0.00	0.00	 1.51507020887566
                    CHANNELS 3 Zrotation Xrotation Yrotation
                    End Site 
                    {
                        OFFSET	 0.00	0.00	 0.75000010571191
                    }
                }
			}
		}
	}
	JOINT RightUpLeg
	{
		OFFSET	 -1.2719393604653	 0.00	 0.00
		CHANNELS 3 Zrotation Xrotation Yrotation
		JOINT RightLowLeg
		{
			OFFSET	 0.00	-4.3429100912261	 0.00
			CHANNELS 3 Zrotation Xrotation Yrotation
			JOINT RightFoot
			{
				OFFSET	 0.00	-4.48767017425826	 0.00
				CHANNELS 3 Zrotation Xrotation Yrotation
				JOINT RightToeBase
                {
                    OFFSET	 0.00	0.00	 1.51507020887566
                    CHANNELS 3 Zrotation Xrotation Yrotation
                    End Site 
                    {
                        OFFSET	 0.00	0.00	 0.749999965609858
                    }
                }   
			}
		}
	}
}
MOTION 
Frames:	8 
Frame Time: 0.02 
 0.1069099998474121 5.063429870605469 9.330869750976563 -158.301 81.1805 871.87 2.08796 -7.04247 0.674464 4.71834 -13.3333 1.22328 -10.2964 65.5365 361.988 67.8911 -78.732 -306.863 -114.6311 -11.4326 -10.3588 10.1846 9.71552 -29.6049 0.0 11.3378 0.0 19.6172 -13.092 22.1571 0.0 0.0 0.0 0.0 0.0 0.0 109.5966 -6.51698 6.56254 -4.07711 2.69324 40.5312 0.0 17.0938 0.0 -25.5318 -18.0976 -54.4258 0.0 0.0 0.0 0.0 0.0 0.0 0.665371 -5.39364 -0.594976 0.0 5.80299 0.0 -12.7485 -0.8323002 14.8596 0.0 -30.0515 0.0 8.81217 -6.53115 -1.75512 0.0 9.22331 0.0 12.6477 4.4582005 -14.5185 0.0 -35.5856 0.0 
  0.11028300285339356 5.063789978027343 9.329970092773438 -158.145 81.205 871.788 2.05672 -7.10531 0.641167 4.71216 -13.2787 1.19097 -10.0739 65.7358 361.631 67.5637 -78.7574 -307.228 -114.4913 -11.5327 -10.5072 9.60562 9.35054 -31.493 0.0 12.4496 0.0 19.3225 -13.5502 19.5352 0.0 0.0 0.0 0.0 0.0 0.0 109.6429 -6.53733 6.53804 -3.97117 2.63699 40.248 0.0 16.9467 0.0 -25.7872 -17.7719 -54.0155 0.0 0.0 0.0 0.0 0.0 0.0 0.646598 -5.37214 -0.640427 0.0 5.79673 0.0 -12.7156 -0.83810043 14.8386 0.0 -30.0427 0.0 8.80575 -6.54849 -1.72759 0.0 9.30586 0.0 12.5819 4.3904 -14.609 0.0 -35.638702 0.0 
  0.11412400245666504 5.064400024414063 9.329550170898438 -157.972 81.2148 871.688 1.98359 -7.09714 0.64671 4.80701 -13.3778 1.21356 -9.52157 65.9936 360.82 66.7888 -78.776 -307.859 -114.499 -11.6079 -10.5732 9.20622 9.18785 -32.7311 0.0 13.3193 0.0 19.0347 -13.4991 18.2929 0.0 0.0 0.0 0.0 0.0 0.0 109.616104 -6.61328 6.40211 -3.82985 2.54807 40.3212 0.0 16.8142 0.0 -25.8001 -17.5345 -53.798 0.0 0.0 0.0 0.0 0.0 0.0 0.623935 -5.33085 -0.920983 0.0 5.72889 0.0 -12.6917 -0.8642998 15.0494 0.0 -30.0051 0.0 8.79909 -6.57635 -1.72299 0.0 9.38452 0.0 12.5868 4.3373003 -14.6476 0.0 -35.635902 0.0 
  0.11822799682617187 5.065969848632813 9.328880004882812 -157.674 81.2312 871.473 1.96311 -7.08671 0.637388 4.82617 -13.4538 1.21138 -9.09993 66.2671 360.178 66.0925 -78.7991 -308.494 -114.4895 -11.6459 -10.6601 8.88633 8.9888 -33.1108 0.0 14.1703 0.0 18.618 -13.2916 18.2664 0.0 0.0 0.0 0.0 0.0 0.0 109.6197 -6.62874 6.37811 -3.67131 2.47054 40.3021 0.0 16.7032 0.0 -25.6894 -17.5123 -53.6011 0.0 0.0 0.0 0.0 0.0 0.0 0.637656 -5.38871 -0.549038 0.0 5.85775 0.0 -12.6541 -0.8380003 14.6424 0.0 -30.0844 0.0 8.80255 -6.61067 -1.72908 0.0 9.49175 0.0 12.5671 4.2966003 -14.6916 0.0 -35.6563 0.0 
  0.12220000267028809 5.066289978027344 9.328179931640625 -157.323 81.2762 871.221 1.93655 -7.11027 0.633215 4.84982 -13.4423 1.2106 -8.69736 66.5159 359.564 65.5266 -78.836 -309.008 -114.5177 -11.5701 -10.6044 8.6932 8.8467 -33.4446 0.0 14.7408 0.0 18.2827 -13.0126 18.877 0.0 0.0 0.0 0.0 0.0 0.0 109.6576 -6.64952 6.34871 -3.57341 2.36184 40.2023 0.0 16.5784 0.0 -25.4664 -17.479 -53.3005 0.0 0.0 0.0 0.0 0.0 0.0 0.627066 -5.33706 -0.636625 0.0 5.84705 0.0 -12.6011 -0.8427 14.6542 0.0 -30.0469 0.0 8.79068 -6.5845 -1.86159 0.0 9.55155 0.0 12.528 4.2731 -14.6571 0.0 -35.677498 0.0 
  0.12601300239562988 5.066990051269531 9.327260131835937 -156.916 81.3193 870.928 1.95999 -7.12929 0.622355 4.79516 -13.4203 1.19498 -8.31524 66.7086 358.996 64.8204 -78.8495 -309.651 -114.5009 -11.488 -10.5512 8.61187 8.68595 -32.6789 0.0 15.1754 0.0 17.8385 -13.0032 18.2459 0.0 0.0 0.0 0.0 0.0 0.0 109.7266 -6.6175 6.22863 -3.46885 2.29127 40.4874 0.0 16.3868 0.0 -25.4933 -17.341 -53.2967 0.0 0.0 0.0 0.0 0.0 0.0 0.627403 -5.30182 -0.665528 0.0 5.86324 0.0 -12.5784 -0.85809994 14.596 0.0 -30.0888 0.0 8.78808 -6.5756 -1.98216 0.0 9.64837 0.0 12.4967 4.2194004 -14.6426 0.0 -35.6261 0.0 
  0.12974200248718262 5.0679998779296875 9.326589965820313 -156.494 81.3846 870.593 1.94215 -7.1451 0.625424 4.80146 -13.3471 1.1972 -7.99372 66.8812 358.525 64.3922 -78.8645 -310.021 -114.4515 -11.3925 -10.524 8.41583 8.65293 -32.1951 0.0 15.4348 0.0 17.7048 -12.9129 17.7837 0.0 0.0 0.0 0.0 0.0 0.0 109.762695 -6.62251 6.1902 -3.37835 2.22263 40.1209 0.0 16.2551 0.0 -25.5754 -17.436 -52.9787 0.0 0.0 0.0 0.0 0.0 0.0 0.621187 -5.23706 -0.625708 0.0 5.86683 0.0 -12.5386 -0.8512001 14.5069 0.0 -30.0708 0.0 8.78224 -6.5339 -2.04062 0.0 9.71281 0.0 12.495 4.1822004 -14.6583 0.0 -35.6339 0.0 
  0.13323399543762207 5.070639953613282 9.326300048828125 -156.156 81.4178 870.4 1.88758 -7.13208 0.6046 4.84441 -13.353 1.18458 -7.55082 67.0481 357.908 64.1187 -78.8811 -310.203 -114.4497 -11.3154 -10.3236 8.30007 8.71033 -31.9061 0.0 15.5336 0.0 17.6598 -12.7851 17.3936 0.0 0.0 0.0 0.0 0.0 0.0 109.7863 -6.63838 6.11465 -3.28263 2.22381 40.4946 0.0 16.0678 0.0 -25.5071 -17.3145 -52.985 0.0 0.0 0.0 0.0 0.0 0.0 0.616556 -5.25522 -0.603635 0.0 5.92623 0.0 -12.5023 -0.83469963 14.3877 0.0 -30.0551 0.0 8.77606 -6.55092 -2.1746 0.0 9.80305 0.0 12.4489 4.1626997 -14.674 0.0 -35.6332 0.0 
